<?xml version="1.0" ?><!DOCTYPE svg  PUBLIC '-//W3C//DTD SVG 1.1//EN'  'http://www.w3.org/Graphics/SVG/1.1/DTD/svg11.dtd'><svg enable-background="new 0 0 24 24" height="24px" id="Layer_1" version="1.1" viewBox="0 0 24 24" width="24px" xml:space="preserve" xmlns="http://www.w3.org/2000/svg" xmlns:xlink="http://www.w3.org/1999/xlink"><g><path d="M12,0H6C2,0,0.9,4,0.9,4C0.3,6.6,0,9.2,0,12s0.3,5.4,0.9,8c0,0,1.1,4,5.1,4h6c0.6,0,1-0.4,1-1v-6c0-0.6-0.4-1-1-1H8.3   C8.1,14.7,8,13.4,8,12s0.1-2.7,0.3-4H12c0.6,0,1-0.4,1-1V1C13,0.4,12.6,0,12,0z M9,18h2v4H9V18z M8,6H6.5C6.2,7.9,6,10,6,12   s0.2,4.1,0.5,6H8v4H6c-2.4,0-3.2-3-3.2-3C2.3,16.7,2,14.4,2,12s0.3-4.7,0.8-7c0,0,0.8-3,3.2-3h2V6z M11,6H9V2h2V6z" fill="#D5DDDF"/><path d="M21,12c0-1.9-1.3-3.4-3-3.9v1c1.2,0.4,2,1.5,2,2.8s-0.8,2.4-2,2.8v1C19.7,15.4,21,13.9,21,12z" fill="#D5DDDF"/><path d="M18,5.1v1c2.8,0.5,5,2.9,5,5.9s-2.2,5.4-5,5.9v1c3.4-0.5,6-3.4,6-6.9S21.4,5.6,18,5.1z" fill="#D5DDDF"/></g></svg>